<?xml version="1.0" standalone="no"?>
<!DOCTYPE svg PUBLIC "-//W3C//DTD SVG 20010904//EN"
 "http://www.w3.org/TR/2001/REC-SVG-20010904/DTD/svg10.dtd">
<svg version="1.0" xmlns="http://www.w3.org/2000/svg"
 width="1400.000000pt" height="1400.000000pt" viewBox="0 0 1400.000000 1400.000000"
 preserveAspectRatio="xMidYMid meet">
<metadata>
Created by potrace 1.11, written by Peter Selinger 2001-2013
</metadata>
<g transform="translate(0.000000,1400.000000) scale(0.100000,-0.100000)"
fill="#000000" stroke="none">
<path d="M4050 12040 c0 -3 -16 -4 -36 -2 l-36 4 4 -71 c1 -39 -1 -71 -5 -71
-4 0 -3 -9 3 -20 6 -11 7 -20 2 -20 -5 0 -6 -18 -2 -40 4 -22 3 -40 -2 -40 -5
0 -4 -9 2 -20 6 -11 7 -20 2 -20 -5 0 -6 -18 -2 -40 4 -22 3 -40 -2 -40 -5 0
-4 -9 2 -20 6 -11 7 -20 3 -20 -4 0 -6 -54 -3 -120 3 -66 1 -120 -3 -120 -4 0
-3 -9 3 -20 6 -11 7 -20 2 -20 -4 0 -5 -27 -2 -60 3 -33 2 -60 -2 -60 -5 0 -4
-9 2 -20 6 -11 7 -20 2 -20 -4 0 -5 -27 -2 -60 3 -33 2 -60 -2 -60 -5 0 -4 -9
2 -20 6 -11 7 -20 2 -20 -4 0 -5 -27 -2 -60 3 -33 2 -60 -2 -60 -5 0 -4 -9 2
-20 6 -11 7 -20 2 -20 -4 0 -5 -27 -2 -60 3 -33 2 -60 -2 -60 -5 0 -4 -9 2
-20 6 -11 7 -20 2 -20 -4 0 -5 -27 -2 -60 3 -33 2 -60 -2 -60 -5 0 -4 -9 2
-20 6 -11 7 -20 2 -20 -4 0 -5 -27 -2 -60 3 -33 2 -60 -2 -60 -5 0 -4 -9 2
-20 6 -11 7 -20 2 -20 -4 0 -5 -27 -2 -60 3 -33 2 -60 -2 -60 -5 0 -4 -9 2
-20 6 -11 7 -20 3 -20 -4 0 -7 -45 -5 -99 3 -88 5 -100 23 -104 10 -3 19 -2
19 3 0 4 18 4 40 0 22 -4 40 -3 40 2 0 5 9 4 19 -2 11 -5 22 -7 24 -3 3 5 48
6 101 3 53 -3 96 -1 96 3 0 4 9 3 20 -3 11 -6 20 -7 20 -2 0 5 18 6 40 2 22
-4 40 -3 40 2 0 5 9 4 20 -2 11 -6 20 -7 20 -2 0 5 18 6 40 2 22 -4 40 -3 40
2 0 5 9 4 20 -2 11 -6 20 -7 20 -3 0 4 45 6 100 3 55 -3 100 -1 100 3 0 4 9 3
20 -3 11 -6 20 -7 20 -2 0 5 18 6 40 2 22 -4 40 -3 40 2 0 5 9 4 20 -2 11 -6
20 -7 20 -2 0 5 18 6 40 2 22 -4 40 -3 40 2 0 5 9 4 20 -2 11 -6 20 -7 20 -3
0 4 45 6 100 3 55 -3 100 -1 100 3 0 4 9 3 20 -3 11 -6 20 -7 20 -2 0 5 18 6
40 2 22 -4 40 -3 40 2 0 5 9 4 20 -2 11 -6 20 -7 20 -2 0 5 18 6 40 2 22 -4
40 -3 40 2 0 5 9 4 20 -2 11 -6 20 -7 20 -3 0 4 45 6 100 3 55 -3 100 -1 100
3 0 4 9 3 20 -3 11 -6 20 -7 20 -2 0 5 18 6 40 2 22 -4 40 -3 40 2 0 5 9 4 20
-2 11 -6 20 -7 20 -2 0 5 14 6 31 4 28 -4 30 -8 27 -33 -3 -16 -1 -29 4 -29 5
0 6 -5 3 -11 -10 -15 -12 -79 -3 -79 3 0 3 -13 -2 -30 -5 -16 -6 -30 -2 -30 9
0 7 -68 -1 -76 -4 -4 -2 -15 3 -25 7 -12 6 -19 -2 -21 -8 -3 -8 -9 0 -25 6
-11 8 -23 5 -27 -9 -8 -10 -66 -1 -66 4 0 3 -13 -2 -29 -4 -15 -4 -34 0 -42 5
-7 6 -17 3 -23 -8 -12 -10 -66 -3 -66 7 0 4 -66 -5 -79 -3 -6 -1 -11 5 -11 6
0 8 -5 5 -11 -10 -15 -12 -79 -3 -79 3 0 3 -13 -2 -30 -5 -16 -6 -30 -2 -30 9
0 7 -68 -1 -76 -4 -4 -2 -15 3 -25 7 -12 6 -19 -2 -21 -8 -3 -8 -9 0 -25 6
-11 8 -23 5 -27 -9 -8 -10 -66 -1 -66 4 0 3 -13 -2 -29 -4 -15 -4 -34 0 -42 5
-7 6 -17 3 -23 -8 -12 -10 -66 -3 -66 7 0 4 -66 -5 -79 -3 -6 -1 -11 5 -11 6
0 8 -5 5 -11 -10 -15 -12 -79 -3 -79 3 0 3 -13 -2 -30 -5 -16 -6 -30 -2 -30 9
0 7 -68 -1 -76 -4 -4 -2 -15 3 -25 7 -12 6 -19 -2 -21 -8 -3 -8 -9 0 -25 6
-11 8 -23 5 -27 -9 -8 -10 -66 -1 -66 4 0 3 -13 -2 -29 -4 -15 -4 -34 0 -42 5
-7 6 -17 3 -23 -8 -12 -10 -66 -3 -66 7 0 4 -66 -5 -79 -3 -6 -2 -11 3 -11 5
0 8 -12 6 -27 -2 -16 -2 -23 2 -16 3 8 13 9 28 3 12 -4 29 -4 38 1 11 6 19 5
23 -1 4 -7 12 -7 25 0 13 7 21 7 25 0 5 -8 11 -8 20 0 7 6 15 7 18 3 6 -10 70
-8 86 2 6 3 11 1 11 -5 0 -6 5 -8 11 -5 15 10 79 12 79 3 0 -3 14 -3 30 2 17
5 30 5 30 2 0 -9 64 -7 79 3 6 3 11 1 11 -5 0 -8 6 -7 21 1 15 7 24 8 32 0 6
-6 16 -7 28 -1 12 7 20 6 24 0 5 -8 11 -8 20 0 7 6 16 7 19 2 3 -5 28 -6 56
-2 27 4 50 4 50 1 0 -8 58 -6 66 2 4 3 15 2 25 -4 13 -7 19 -6 19 1 0 7 6 8
18 1 13 -7 22 -7 29 0 8 8 13 7 17 0 5 -8 13 -8 26 -1 10 6 21 6 24 2 6 -9 59
-7 75 3 6 3 11 1 11 -5 0 -6 5 -8 11 -5 15 10 79 12 79 3 0 -3 14 -3 30 2 17
5 30 5 30 2 0 -9 64 -7 79 3 6 3 11 1 11 -5 0 -8 6 -8 20 0 14 8 20 8 20 0 0
-8 6 -8 20 0 14 8 20 8 20 0 0 -6 5 -8 11 -5 15 10 79 12 79 3 0 -3 14 -3 30
2 17 5 30 5 30 2 0 -9 64 -7 79 3 6 3 11 1 11 -5 0 -8 6 -7 21 1 15 7 24 8 32
0 6 -6 16 -7 28 -1 12 7 20 6 24 0 5 -8 11 -8 20 0 7 6 15 7 18 3 6 -10 70 -8
86 2 6 3 11 1 11 -5 0 -6 5 -8 11 -5 15 10 69 13 74 4 3 -3 16 -4 30 -1 l26 5
-3 128 c-2 71 1 129 5 129 4 0 3 9 -3 20 -6 11 -7 20 -2 20 5 0 6 18 2 40 -4
22 -3 40 2 40 5 0 4 9 -2 20 -6 11 -7 20 -2 20 5 0 6 18 2 40 -4 22 -3 40 2
40 5 0 4 9 -2 20 -8 14 -8 20 0 20 8 0 8 6 0 20 -8 14 -8 20 0 20 8 0 8 6 0
20 -6 11 -7 20 -2 20 5 0 6 18 2 40 -4 22 -3 40 2 40 5 0 4 9 -2 20 -6 11 -7
20 -2 20 5 0 6 18 2 40 -4 22 -3 40 2 40 5 0 4 9 -2 20 -8 14 -8 20 0 20 8 0
8 6 0 20 -8 14 -8 20 0 20 8 0 8 6 0 20 -6 11 -7 20 -2 20 5 0 6 18 2 40 -4
22 -3 40 2 40 5 0 4 9 -2 20 -6 11 -7 20 -2 20 5 0 6 18 2 40 -4 22 -3 40 2
40 5 0 4 9 -2 20 -8 14 -8 20 0 20 8 0 8 6 0 20 -8 14 -8 20 0 20 8 0 8 6 0
20 -6 11 -7 20 -2 20 5 0 6 18 2 40 -4 22 -3 40 2 40 5 0 4 9 -2 20 -6 11 -7
20 -2 20 5 0 6 18 2 40 -4 22 -3 40 2 40 5 0 4 9 -2 20 -6 11 -7 20 -3 20 4 0
6 83 3 185 -3 101 -2 195 1 207 3 13 2 31 -3 40 -5 10 -4 19 2 23 7 4 7 12 0
25 -13 25 11 44 50 38 16 -3 30 -2 30 2 0 3 27 3 60 0 33 -3 60 -2 60 2 0 5 9
4 20 -2 11 -6 20 -7 20 -2 0 4 27 5 60 2 33 -3 60 -2 60 2 0 5 9 4 20 -2 11
-6 20 -7 20 -2 0 4 27 5 60 2 33 -3 60 -2 60 2 0 5 9 4 20 -2 11 -6 20 -7 20
-2 0 4 27 5 60 2 33 -3 60 -2 60 2 0 5 9 4 20 -2 11 -6 20 -7 20 -2 0 4 27 5
60 2 33 -3 60 -2 60 2 0 5 9 4 20 -2 11 -6 20 -7 20 -3 0 4 54 6 120 3 66 -3
120 -1 120 3 0 4 9 3 20 -3 11 -6 20 -7 20 -2 0 5 18 6 40 2 22 -4 40 -3 40 2
0 5 9 4 20 -2 11 -6 20 -7 20 -2 0 5 18 6 40 2 22 -4 40 -3 40 2 0 5 9 4 20
-2 11 -6 20 -7 20 -3 0 4 45 6 100 3 55 -3 100 -1 100 3 0 4 9 3 20 -3 11 -6
20 -7 20 -2 0 5 18 6 40 2 22 -4 40 -3 40 2 0 5 9 4 20 -2 11 -6 20 -7 20 -2
0 5 18 6 40 2 22 -4 40 -3 40 2 0 5 9 4 20 -2 11 -6 20 -7 20 -3 0 10 114 8
130 -2 6 -4 9 -13 6 -20 -2 -7 0 -17 6 -23 7 -7 6 -17 -2 -32 -8 -14 -8 -25
-1 -33 6 -8 6 -18 1 -27 -5 -9 -5 -19 2 -27 7 -9 7 -13 -2 -13 -9 0 -9 -4 -2
-13 7 -8 7 -18 2 -27 -5 -9 -5 -19 1 -27 7 -8 7 -19 -1 -33 -8 -14 -8 -25 -1
-33 6 -8 6 -18 1 -27 -5 -9 -5 -19 1 -27 7 -8 7 -19 -1 -33 -8 -14 -8 -25 -1
-33 6 -8 6 -18 1 -27 -5 -9 -5 -19 2 -27 7 -9 7 -13 -2 -13 -9 0 -9 -4 -2 -13
7 -8 7 -18 2 -27 -5 -9 -5 -19 1 -27 7 -8 7 -19 -1 -33 -8 -14 -8 -25 -1 -33
6 -8 6 -18 1 -27 -5 -9 -5 -19 1 -27 7 -8 7 -19 -1 -33 -8 -14 -8 -25 -1 -33
6 -8 6 -18 1 -27 -5 -9 -5 -19 2 -27 7 -9 7 -13 -2 -13 -9 0 -9 -4 -2 -13 7
-8 7 -18 2 -27 -5 -9 -5 -19 1 -27 7 -8 7 -19 -1 -33 -8 -14 -8 -25 -1 -33 6
-8 6 -18 1 -27 -5 -9 -5 -19 1 -27 7 -8 7 -19 -1 -33 -8 -14 -8 -25 -1 -33 6
-8 6 -18 1 -27 -5 -9 -5 -19 2 -27 7 -9 7 -13 -2 -13 -9 0 -9 -4 -2 -13 7 -8
7 -18 2 -27 -5 -9 -5 -19 1 -27 7 -8 7 -19 -1 -33 -8 -14 -8 -25 -1 -33 6 -8
6 -18 1 -27 -5 -9 -5 -19 1 -27 7 -8 7 -19 -1 -33 -8 -14 -8 -25 -1 -33 6 -8
6 -18 1 -27 -5 -9 -5 -19 2 -27 7 -9 7 -13 -2 -13 -9 0 -9 -4 -2 -13 7 -8 7
-18 2 -27 -5 -9 -5 -19 1 -27 7 -8 7 -19 -1 -33 -8 -14 -8 -25 -1 -33 6 -8 6
-18 1 -27 -5 -9 -5 -19 1 -27 7 -8 7 -19 -1 -33 -8 -14 -8 -25 -1 -33 6 -8 6
-18 1 -27 -5 -9 -5 -19 2 -27 7 -9 7 -13 -2 -13 -9 0 -9 -4 -2 -13 7 -8 7 -18
2 -27 -5 -9 -5 -19 1 -27 7 -8 7 -19 -1 -33 -8 -14 -8 -25 -1 -33 6 -8 6 -18
1 -27 -5 -9 -5 -19 1 -27 7 -8 7 -19 -1 -33 -8 -14 -8 -25 -1 -33 6 -8 6 -18
1 -27 -5 -9 -5 -19 2 -27 7 -9 7 -13 -2 -13 -9 0 -9 -4 -2 -13 7 -8 7 -18 2
-27 -5 -9 -5 -19 1 -27 7 -8 7 -19 -1 -33 -8 -14 -8 -25 -1 -33 6 -8 6 -18 1
-27 -5 -9 -5 -19 1 -27 7 -8 7 -19 -1 -33 -8 -14 -8 -25 -1 -33 6 -8 6 -18 1
-27 -5 -9 -5 -19 2 -27 7 -9 7 -13 -2 -13 -9 0 -9 -4 -2 -13 7 -8 7 -18 2 -27
-5 -9 -5 -19 1 -27 7 -8 7 -19 -1 -33 -8 -14 -8 -25 -1 -33 6 -8 6 -18 1 -27
-5 -9 -5 -19 1 -27 7 -8 7 -19 -1 -33 -8 -14 -8 -25 -1 -33 6 -8 6 -18 1 -27
-5 -9 -5 -19 2 -27 7 -9 7 -13 -2 -13 -9 0 -9 -4 -2 -13 7 -8 7 -18 2 -27 -5
-9 -5 -19 1 -27 7 -8 7 -19 -1 -33 -8 -14 -8 -25 -1 -33 6 -8 6 -18 1 -27 -5
-9 -5 -19 1 -27 7 -8 7 -19 -1 -33 -8 -14 -8 -25 -1 -33 6 -8 6 -18 1 -27 -5
-9 -5 -19 2 -27 7 -9 7 -13 -2 -13 -9 0 -9 -4 -2 -13 7 -8 7 -18 2 -27 -5 -9
-5 -19 1 -27 7 -8 7 -19 -1 -33 -8 -14 -8 -25 -1 -33 6 -8 6 -18 1 -27 -5 -9
-5 -19 1 -27 7 -8 7 -19 -1 -33 -8 -14 -8 -25 -1 -33 6 -8 6 -18 1 -27 -5 -9
-5 -19 2 -27 7 -9 7 -13 -2 -13 -9 0 -9 -4 -2 -13 7 -8 7 -18 2 -27 -5 -9 -5
-19 1 -27 7 -8 7 -19 -1 -33 -8 -14 -8 -25 -1 -33 6 -8 6 -18 1 -27 -5 -9 -5
-19 1 -27 7 -8 7 -19 -1 -33 -8 -14 -8 -25 -1 -33 6 -8 6 -18 1 -27 -5 -9 -5
-19 2 -27 7 -9 7 -13 -2 -13 -9 0 -9 -4 -2 -13 7 -8 7 -18 2 -27 -5 -9 -5 -19
1 -27 7 -8 7 -18 -1 -33 -6 -11 -8 -26 -3 -32 9 -16 9 -50 0 -65 -4 -6 -3 -14
3 -18 6 -4 7 -11 4 -17 -4 -6 -6 -31 -5 -54 1 -33 -3 -46 -17 -53 -13 -7 -23
-6 -30 1 -7 7 -12 8 -12 3 0 -6 -77 -8 -200 -5 -110 3 -200 1 -200 -3 0 -4 -9
-3 -20 3 -11 6 -20 7 -20 2 0 -5 -18 -6 -40 -2 -22 4 -40 3 -40 -2 0 -5 -9 -4
-20 2 -11 6 -20 7 -20 2 0 -5 -18 -6 -40 -2 -22 4 -40 3 -40 -2 0 -5 -9 -4
-19 2 -14 7 -22 7 -26 0 -5 -8 -11 -7 -21 1 -11 9 -14 9 -14 0 0 -9 -5 -9 -20
-1 -11 6 -20 7 -20 2 0 -5 -18 -6 -40 -2 -22 4 -40 3 -40 -2 0 -5 -9 -4 -20 2
-11 6 -20 7 -20 2 0 -5 -18 -6 -40 -2 -22 4 -40 3 -40 -2 0 -5 -9 -4 -20 2
-11 6 -20 7 -20 3 0 -4 -90 -6 -200 -3 -110 3 -200 1 -200 -3 0 -4 -9 -3 -20
3 -11 6 -20 7 -20 2 0 -5 -18 -6 -40 -2 -22 4 -40 3 -40 -2 0 -5 -9 -4 -20 2
-11 6 -20 7 -20 2 0 -5 -18 -6 -40 -2 -22 4 -40 3 -40 -2 0 -5 -9 -4 -20 2
-11 6 -20 7 -20 2 0 -5 -18 -6 -40 -2 -22 4 -40 3 -40 -2 0 -5 -9 -4 -20 2
-11 6 -20 7 -20 1 0 -5 -14 -6 -34 -1 -19 4 -40 4 -47 -1 -7 -4 -19 -3 -25 2
-8 7 -14 7 -18 0 -4 -6 -13 -8 -20 -5 -10 4 -15 -6 -18 -31 -2 -20 -1 -38 3
-41 4 -2 4 -17 -1 -33 -5 -19 -4 -33 3 -40 8 -8 8 -11 0 -11 -7 0 -8 -14 -3
-40 4 -22 3 -40 -2 -40 -5 0 -4 -9 2 -20 6 -11 7 -20 3 -20 -4 0 -6 -90 -3
-200 3 -110 1 -200 -3 -200 -4 0 -3 -9 3 -20 6 -11 7 -20 2 -20 -5 0 -6 -18
-2 -40 4 -22 3 -40 -2 -40 -5 0 -4 -9 2 -20 6 -11 7 -20 2 -20 -5 0 -6 -18 -2
-40 4 -22 3 -40 -2 -40 -5 0 -4 -9 2 -20 6 -11 7 -20 2 -20 -5 0 -6 -18 -2
-40 4 -22 3 -40 -2 -40 -5 0 -4 -9 2 -20 6 -11 7 -20 2 -20 -5 0 -6 -18 -2
-40 4 -22 3 -40 -2 -40 -5 0 -4 -9 2 -20 6 -11 7 -20 3 -20 -4 0 -6 -90 -3
-200 3 -110 1 -200 -3 -200 -4 0 -3 -9 3 -20 6 -11 7 -20 2 -20 -5 0 -6 -18
-2 -40 4 -22 3 -40 -2 -40 -5 0 -4 -9 2 -20 6 -11 7 -20 2 -20 -5 0 -6 -18 -2
-40 4 -22 3 -40 -2 -40 -5 0 -4 -9 2 -20 8 -15 8 -20 -1 -20 -9 0 -9 -3 0 -14
8 -10 9 -16 1 -21 -7 -4 -7 -12 0 -26 7 -11 7 -19 1 -19 -5 0 -6 -12 -2 -27 7
-25 12 -28 49 -29 23 0 44 -3 47 -6 3 -3 25 -2 49 2 25 4 52 3 60 -2 10 -5 24
-5 36 2 11 6 26 7 33 3 16 -10 37 -10 65 -1 12 4 22 4 22 -1 0 -5 15 -5 34 -1
18 4 41 3 50 -2 11 -6 16 -5 16 3 0 8 4 8 13 1 8 -7 18 -7 27 -2 9 5 19 5 27
-2 9 -7 13 -7 13 2 0 9 4 9 13 2 8 -7 18 -7 27 -2 9 5 19 5 27 -1 8 -7 19 -7
33 1 14 8 25 8 33 1 8 -6 18 -6 27 -1 9 5 19 5 27 -1 8 -7 18 -7 32 1 15 7 21
7 21 0 0 -7 6 -7 21 0 14 8 24 8 32 1 8 -6 18 -6 27 -1 9 5 19 5 27 -1 8 -7
19 -7 33 1 14 8 25 8 33 1 8 -6 18 -6 27 -1 9 5 19 5 27 -2 10 -8 13 -7 13 3
0 10 3 10 12 1 7 -7 17 -8 29 -2 11 6 20 6 24 1 3 -6 17 -6 33 -1 16 4 36 4
45 -2 11 -5 24 -5 37 2 11 6 26 7 33 3 16 -10 37 -10 65 -1 12 4 22 4 22 -1 0
-5 15 -5 34 -1 18 4 41 3 50 -2 11 -6 16 -5 16 3 0 8 4 8 13 1 8 -7 18 -7 27
-2 9 5 19 5 27 -2 9 -7 13 -7 13 2 0 9 4 9 13 2 8 -7 18 -7 27 -2 9 5 19 5 27
-1 8 -7 19 -7 33 1 14 8 25 8 33 1 8 -6 18 -6 27 -1 9 5 19 5 27 -1 8 -7 18
-7 32 1 15 7 21 7 21 0 0 -7 6 -7 21 0 14 8 24 8 32 1 8 -6 18 -6 27 -1 9 5
19 5 27 -1 8 -7 19 -7 33 1 16 8 25 9 33 1 6 -6 16 -7 28 -1 11 6 20 7 24 1 3
-6 16 -6 33 0 25 8 28 14 25 46 -1 19 -5 38 -7 41 -3 2 -1 12 4 21 5 10 5 23
1 30 -5 7 -5 28 -1 47 4 19 4 34 -1 34 -5 0 -5 10 -1 23 9 27 9 48 -1 64 -4 7
-3 22 3 33 7 13 7 26 2 37 -5 9 -6 28 -2 43 4 15 4 33 0 40 -4 6 -4 27 0 46 4
19 4 34 -1 34 -5 0 -5 10 -1 23 9 27 9 48 -1 64 -4 7 -3 22 3 33 7 13 7 26 2
37 -5 9 -6 28 -2 43 4 15 4 33 0 40 -4 6 -4 27 0 46 4 19 4 34 -1 34 -5 0 -5
10 -1 23 9 27 9 48 -1 64 -4 7 -3 22 3 33 7 13 7 26 2 37 -5 9 -6 28 -2 43 4
15 4 33 0 40 -4 6 -4 27 0 46 4 19 4 34 -1 34 -5 0 -5 10 -1 23 9 27 9 48 -1
64 -4 7 -3 22 3 33 7 13 7 26 2 37 -5 9 -6 28 -2 43 4 15 4 33 0 40 -4 6 -4
27 0 46 4 19 4 34 -1 34 -5 0 -5 10 -1 23 9 27 9 48 -1 64 -4 7 -3 22 3 33 7
13 7 26 2 37 -5 9 -6 28 -2 43 4 15 4 33 0 40 -4 6 -4 27 0 46 4 19 4 34 -1
34 -5 0 -5 10 -1 23 9 27 9 48 -1 64 -4 7 -3 22 3 33 7 13 7 26 1 38 -14 26 2
46 33 40 14 -3 26 -1 26 4 0 5 9 4 20 -2 11 -6 20 -7 20 -2 0 5 18 6 40 2 22
-4 40 -3 40 2 0 5 9 4 20 -2 11 -6 20 -7 20 -2 0 5 18 6 40 2 22 -4 40 -3 40
2 0 5 9 4 20 -2 11 -6 20 -7 20 -2 0 5 18 6 40 2 22 -4 40 -3 40 2 0 5 9 4 20
-2 11 -6 20 -7 20 -3 0 4 90 6 200 3 110 -3 200 -1 200 3 0 4 9 3 20 -3 11 -6
20 -7 20 -2 0 5 18 6 40 2 22 -4 40 -3 40 2 0 5 9 4 20 -2 11 -6 20 -7 20 -2
0 5 18 6 40 2 22 -4 40 -3 40 2 0 5 9 4 20 -2 14 -8 20 -8 20 0 0 8 6 8 20 0
14 -8 20 -8 20 0 0 8 6 8 20 0 11 -6 20 -7 20 -2 0 5 18 6 40 2 22 -4 40 -3
40 2 0 5 9 4 20 -2 11 -6 20 -7 20 -2 0 5 18 6 40 2 22 -4 40 -3 40 2 0 5 9 4
20 -2 11 -6 20 -7 20 -3 0 4 90 6 200 3 110 -3 200 -1 200 3 0 4 9 3 20 -3 11
-6 20 -7 20 -3 0 4 27 6 61 5 l61 -4 -4 41 c-2 23 0 41 5 41 4 0 3 9 -3 20 -6
11 -7 20 -2 20 4 0 5 27 2 60 -3 33 -2 60 2 60 5 0 4 9 -2 20 -6 11 -7 20 -2
20 4 0 5 27 2 60 -3 33 -2 60 2 60 5 0 4 9 -2 20 -6 11 -7 20 -2 20 4 0 5 27
2 60 -3 33 -2 60 2 60 5 0 4 9 -2 20 -6 11 -7 20 -2 20 4 0 5 27 2 60 -3 33
-2 60 2 60 5 0 4 9 -2 20 -6 11 -7 20 -2 20 4 0 5 27 2 60 -3 33 -2 60 2 60 5
0 4 9 -2 20 -6 11 -7 20 -3 20 4 0 6 45 3 100 -3 55 -1 100 3 100 4 0 3 9 -3
20 -6 11 -7 20 -3 20 4 0 6 36 3 80 -3 44 -1 80 3 80 4 0 3 9 -3 20 -8 15 -8
20 1 20 9 0 9 3 0 14 -8 10 -9 16 -1 21 7 4 7 12 0 26 -6 10 -7 19 -3 19 4 0
6 36 3 80 -3 44 -1 80 3 80 4 0 3 9 -3 20 -6 11 -7 20 -3 20 4 0 6 36 3 80 -3
44 -1 80 3 80 4 0 3 9 -3 20 -8 15 -8 20 1 20 9 0 9 3 0 14 -8 10 -9 16 -1 21
7 4 7 12 0 26 -6 10 -7 19 -3 19 4 0 6 36 3 80 -3 44 -1 80 3 80 4 0 3 9 -3
20 -6 11 -7 20 -3 20 4 0 6 45 3 100 -3 55 -1 100 3 100 4 0 3 9 -3 20 -6 11
-7 20 -2 20 4 0 5 27 2 60 -3 33 -2 60 2 60 5 0 4 9 -2 20 -6 11 -7 20 -2 20
4 0 5 27 2 60 -3 33 -2 60 2 60 5 0 4 9 -2 20 -6 11 -7 20 -2 20 4 0 5 27 2
60 -3 33 -2 60 2 60 5 0 4 9 -2 20 -6 11 -7 20 -2 20 4 0 5 27 2 60 -3 33 -2
60 2 60 5 0 4 9 -2 20 -6 11 -7 20 -2 20 4 0 5 27 2 60 -3 33 -2 60 2 60 5 0
4 9 -2 20 -6 11 -7 20 -2 20 4 0 5 27 2 60 -3 33 -2 60 2 60 5 0 4 9 -2 20 -6
11 -7 20 -2 20 4 0 5 27 2 60 -3 33 -2 60 2 60 5 0 4 9 -2 20 -6 11 -7 20 -3
20 4 0 6 45 3 100 -3 55 -1 100 3 100 4 0 3 9 -3 20 -6 11 -7 20 -3 20 4 0 6
36 3 80 -3 44 -1 80 3 80 4 0 3 9 -3 20 -8 15 -8 20 1 20 8 0 9 4 0 13 -6 8
-8 17 -4 20 3 4 6 24 6 44 0 38 0 38 -44 40 -24 2 -52 4 -61 7 -10 2 -18 0
-18 -5 0 -6 -8 -5 -20 1 -11 6 -20 7 -20 2 0 -4 -27 -5 -60 -2 -33 3 -60 2
-60 -2 0 -5 -9 -4 -20 2 -11 6 -20 7 -20 2 0 -4 -27 -5 -60 -2 -33 3 -60 2
-60 -2 0 -5 -9 -4 -20 2 -11 6 -20 7 -20 3 0 -4 -54 -6 -120 -3 -66 3 -120 1
-120 -3 0 -4 -9 -3 -20 3 -11 6 -20 7 -20 2 0 -5 -18 -6 -40 -2 -22 4 -40 3
-40 -2 0 -5 -9 -4 -20 2 -11 6 -20 7 -20 2 0 -5 -18 -6 -40 -2 -22 4 -40 3
-40 -2 0 -5 -9 -4 -20 2 -11 6 -20 7 -20 3 0 -4 -45 -6 -100 -3 -55 3 -100 1
-100 -3 0 -4 -9 -3 -20 3 -11 6 -20 7 -20 2 0 -5 -18 -6 -40 -2 -22 4 -40 3
-40 -2 0 -5 -9 -4 -20 2 -11 6 -20 7 -20 2 0 -5 -18 -6 -40 -2 -22 4 -40 3
-40 -2 0 -5 -9 -4 -20 2 -11 6 -20 7 -20 3 0 -4 -45 -6 -100 -3 -55 3 -100 1
-100 -3 0 -4 -9 -3 -20 3 -11 6 -20 7 -20 2 0 -5 -18 -6 -40 -2 -26 5 -40 4
-40 -3 0 -8 -3 -8 -11 0 -7 7 -21 8 -39 3 -18 -5 -32 -4 -39 3 -8 8 -11 8 -11
-2 0 -7 -5 -9 -11 -6 -5 4 -33 7 -61 7 l-50 -1 5 33 c3 18 2 39 -3 46 -4 7 -4
25 0 40 4 15 4 33 0 40 -4 6 -4 27 0 46 4 19 4 34 -1 34 -5 0 -5 10 -1 23 9
27 9 48 -1 64 -4 7 -3 22 3 33 7 13 7 26 2 37 -5 9 -6 28 -2 43 4 15 4 33 0
40 -4 6 -4 27 0 46 4 19 4 34 -1 34 -5 0 -5 10 -1 23 9 27 9 48 -1 64 -4 7 -3
22 3 33 7 13 7 26 2 37 -5 9 -6 28 -2 43 4 15 4 33 0 40 -4 6 -4 27 0 46 4 19
4 34 -1 34 -5 0 -5 10 -1 23 9 27 9 48 -1 64 -4 7 -3 22 3 33 7 13 7 26 2 37
-5 9 -6 28 -2 43 4 15 4 33 0 40 -4 6 -4 27 0 46 4 19 4 34 -1 34 -5 0 -5 10
-1 23 9 27 9 48 -1 64 -4 7 -3 22 3 33 7 13 7 26 2 37 -5 9 -6 28 -2 43 4 15
4 33 0 40 -4 6 -4 27 0 46 4 19 4 34 -1 34 -5 0 -5 10 -1 23 9 27 9 48 -1 64
-4 7 -3 22 3 33 7 13 7 26 2 37 -5 9 -6 28 -2 43 4 15 4 33 0 40 -4 6 -4 27 0
46 4 19 4 34 -1 34 -5 0 -5 10 -1 23 9 27 9 48 -1 64 -4 7 -3 21 2 31 12 23 3
65 -14 58 -6 -2 -18 0 -25 4 -7 5 -24 4 -37 -1 -13 -5 -23 -5 -23 0 0 5 -15 5
-34 1 -18 -4 -41 -3 -50 2 -10 5 -23 5 -36 -2 -11 -6 -26 -7 -33 -3 -16 10
-37 10 -64 1 -13 -4 -23 -4 -23 1 0 5 -15 5 -34 1 -18 -4 -41 -3 -50 2 -11 6
-16 5 -16 -3 0 -8 -4 -8 -13 -1 -8 7 -18 7 -27 2 -9 -5 -19 -5 -27 2 -9 7 -13
7 -13 -2 0 -9 -4 -9 -13 -2 -8 7 -18 7 -27 2 -9 -5 -19 -5 -27 2 -9 7 -13 7
-13 -2 0 -9 -4 -9 -13 -2 -8 7 -18 7 -27 2 -9 -5 -19 -5 -27 2 -9 7 -13 7 -13
-2 0 -9 -4 -9 -13 -2 -8 7 -18 7 -27 2 -9 -5 -19 -5 -27 2 -9 7 -13 7 -13 -2
0 -9 -4 -9 -13 -2 -8 7 -18 7 -27 2 -9 -5 -19 -5 -27 2 -9 7 -13 7 -13 -2 0
-9 -4 -9 -13 -2 -8 7 -18 7 -27 2 -9 -5 -19 -5 -27 2 -9 7 -13 7 -13 -2 0 -9
-4 -9 -13 -2 -8 7 -18 7 -27 2 -9 -5 -19 -5 -27 2 -10 8 -13 7 -13 -3 0 -10
-3 -10 -12 -1 -7 7 -17 8 -29 2 -11 -6 -20 -6 -24 -1 -3 6 -17 6 -33 1 -16 -4
-36 -4 -45 2 -11 5 -24 5 -37 -2 -11 -6 -26 -7 -33 -3 -16 10 -37 10 -64 1
-13 -4 -23 -4 -23 1 0 5 -15 5 -34 1 -18 -4 -41 -3 -50 2 -10 5 -23 5 -36 -2
-11 -6 -26 -7 -33 -3 -16 10 -37 10 -64 1 -13 -4 -23 -4 -23 1 0 5 -15 5 -34
1 -18 -4 -41 -3 -50 2 -10 5 -23 5 -36 -2 -11 -6 -26 -7 -33 -3 -16 10 -37 10
-64 1 -13 -4 -23 -4 -23 1 0 5 -15 5 -34 1 -18 -4 -41 -3 -50 2 -11 6 -22 6
-29 0 -7 -5 -21 -8 -32 -5 -54 11 -98 6 -92 -11 3 -7 1 -18 -5 -24 -6 -6 -6
-12 0 -16 7 -4 7 -17 2 -35 -5 -19 -4 -33 3 -40 8 -8 8 -11 0 -11 -7 0 -8 -14
-3 -40 4 -22 3 -40 -2 -40 -5 0 -4 -9 2 -20 8 -15 8 -20 -1 -20 -9 0 -9 -3 0
-14 8 -10 9 -16 1 -21 -7 -4 -7 -12 0 -26 6 -10 7 -19 2 -19 -5 0 -6 -18 -2
-40 4 -22 3 -40 -2 -40 -5 0 -4 -9 2 -20 6 -11 7 -20 2 -20 -5 0 -6 -18 -2
-40 4 -22 3 -40 -2 -40 -5 0 -4 -9 2 -20 8 -14 8 -20 0 -20 -8 0 -8 -6 0 -20
8 -14 8 -20 0 -20 -8 0 -8 -6 0 -20 6 -11 7 -20 2 -20 -5 0 -6 -18 -2 -40 4
-22 3 -40 -2 -40 -5 0 -4 -9 2 -20 6 -11 7 -20 2 -20 -5 0 -6 -18 -2 -40 4
-22 3 -40 -2 -40 -5 0 -4 -9 2 -20 8 -15 8 -20 -1 -20 -9 0 -9 -3 0 -14 8 -10
9 -16 1 -21 -7 -4 -7 -12 0 -26 6 -10 7 -19 2 -19 -5 0 -6 -18 -2 -40 4 -22 3
-40 -2 -40 -5 0 -4 -9 2 -20 6 -11 7 -20 2 -20 -5 0 -6 -18 -2 -40 4 -22 3
-40 -2 -40 -5 0 -4 -9 2 -20 6 -11 7 -20 3 -20 -4 0 -6 -90 -3 -200 3 -110 1
-200 -3 -200 -4 0 -3 -9 3 -20 6 -11 7 -20 2 -20 -5 0 -6 -18 -2 -40 4 -22 3
-40 -2 -40 -5 0 -4 -9 2 -20 6 -11 7 -20 2 -20 -5 0 -6 -18 -2 -40 4 -22 3
-40 -2 -40 -5 0 -4 -9 2 -20 6 -11 7 -20 2 -20 -5 0 -6 -18 -2 -40 4 -22 4
-40 0 -40 -5 0 -6 -10 -3 -21 6 -20 3 -21 -36 -17 -22 2 -41 0 -41 -5 0 -4 -9
-3 -20 3 -11 6 -20 7 -20 2 0 -4 -27 -5 -60 -2 -33 3 -60 2 -60 -2 0 -5 -9 -4
-20 2 -11 6 -20 7 -20 3 0 -4 -54 -6 -120 -3 -66 3 -120 1 -120 -3 0 -4 -9 -3
-20 3 -11 6 -20 7 -20 2 0 -5 -18 -6 -40 -2 -22 4 -40 3 -40 -2 0 -5 -9 -4
-20 2 -11 6 -20 7 -20 2 0 -5 -18 -6 -40 -2 -22 4 -40 3 -40 -2 0 -5 -9 -4
-20 2 -11 6 -20 7 -20 3 0 -4 -45 -6 -100 -3 -55 3 -100 1 -100 -3 0 -4 -9 -3
-20 3 -11 6 -20 7 -20 2 0 -5 -18 -6 -40 -2 -22 4 -40 3 -40 -2 0 -5 -9 -4
-20 2 -11 6 -20 7 -20 2 0 -5 -18 -6 -40 -2 -22 4 -40 3 -40 -2 0 -5 -9 -4
-20 2 -11 6 -20 7 -20 3 0 -4 -45 -6 -100 -3 -55 3 -100 1 -100 -3 0 -4 -9 -3
-20 3 -11 6 -20 7 -20 2 0 -5 -18 -6 -40 -2 -25 5 -40 4 -40 -3 0 -6 -4 -6
-12 0 -7 5 -24 7 -38 3 -14 -4 -35 -3 -47 1 -14 5 -23 5 -23 -2 0 -6 -7 -6
-20 1 -12 7 -20 7 -20 1 0 -10 -32 -7 -50 4 -6 3 -10 1 -10 -5 0 -8 -6 -8 -20
0 -14 8 -20 8 -20 0 0 -8 -6 -8 -20 0 -14 8 -20 8 -20 0 0 -8 -6 -8 -20 0 -11
6 -20 7 -20 2 0 -5 -17 -6 -37 -3 -31 6 -38 11 -37 29 0 12 -3 22 -7 22 -5 0
-4 11 1 25 5 13 6 27 1 29 -9 6 -7 49 4 65 3 6 1 11 -5 11 -6 0 -8 5 -5 11 10
15 12 79 3 79 -3 0 -3 14 2 30 5 17 5 30 2 30 -9 0 -7 64 3 79 3 6 1 11 -5 11
-8 0 -8 6 0 20 8 14 8 20 0 20 -8 0 -8 6 0 20 8 14 8 20 0 20 -6 0 -8 5 -5 11
10 15 12 79 3 79 -3 0 -3 14 2 30 5 17 5 30 2 30 -9 0 -7 64 3 79 3 6 1 11 -5
11 -6 0 -8 5 -5 11 10 16 12 69 3 75 -4 3 -4 13 2 23 6 12 5 22 -1 28 -8 8 -7
13 0 17 8 5 8 13 1 27 -8 13 -7 19 0 19 7 0 8 6 1 19 -6 10 -7 21 -4 25 8 8
10 66 2 66 -3 0 -3 23 1 50 4 28 3 53 -2 56 -5 3 -4 12 2 19 8 9 8 15 0 20 -6
4 -7 12 0 24 6 12 5 22 -1 28 -8 8 -7 17 0 32 8 15 9 21 1 21 -6 0 -8 5 -5 11
10 15 12 79 3 79 -3 0 -3 14 2 30 5 17 5 30 2 30 -9 0 -7 64 3 79 3 6 1 11 -5
11 -6 0 -8 5 -5 11 10 16 12 80 2 86 -4 3 -3 11 3 18 8 9 8 15 0 20 -7 4 -7
12 0 25 6 12 7 21 0 25 -6 3 -6 15 0 30 6 15 6 27 0 30 -7 4 -7 13 0 24 6 12
5 22 -1 28 -8 8 -7 13 0 17 8 5 8 13 1 27 -8 13 -7 19 0 19 7 0 8 6 0 19 -5
11 -7 22 -3 24 5 3 8 20 7 39 -1 30 -4 33 -31 34 -17 1 -35 4 -41 8 -7 4 -21
2 -32 -4 -15 -8 -25 -8 -33 -1 -8 6 -18 6 -27 1 -9 -5 -19 -5 -27 1 -8 7 -18
7 -32 -1 -15 -7 -21 -7 -21 0 0 8 -6 8 -20 0 -11 -6 -26 -7 -33 -3 -16 10 -37
10 -64 1 -13 -4 -23 -4 -23 1 0 5 -15 5 -34 1 -18 -4 -41 -3 -50 2 -10 5 -23
5 -36 -2 -11 -6 -26 -7 -33 -3 -16 10 -37 10 -64 1 -13 -4 -23 -4 -23 1 0 5
-15 5 -34 1 -18 -4 -41 -3 -50 2 -10 5 -23 5 -37 -2 -14 -8 -24 -8 -32 -1 -8
6 -18 6 -27 1 -9 -5 -19 -5 -26 1 -6 5 -20 6 -30 2 -23 -9 -65 -9 -88 0 -9 4
-26 2 -37 -3 -11 -6 -25 -7 -32 -3 -16 10 -37 10 -64 1 -13 -4 -23 -4 -23 1 0
5 -15 5 -34 1 -18 -4 -41 -3 -50 2 -10 5 -23 5 -36 -2 -11 -6 -26 -7 -33 -3
-16 10 -37 10 -64 1 -13 -4 -23 -4 -23 1 0 5 -15 5 -34 1 -18 -4 -41 -3 -50 2
-10 5 -23 5 -36 -2 -11 -6 -26 -7 -33 -3 -16 10 -37 10 -64 1 -13 -4 -23 -4
-23 1 0 5 -15 5 -34 1 -18 -4 -41 -3 -50 2 -10 5 -23 5 -36 -2 -11 -6 -26 -7
-33 -3 -16 10 -37 10 -64 1 -13 -4 -23 -3 -23 2 0 6 -9 6 -24 0 -13 -5 -26 -6
-29 -3 -8 7 -77 10 -77 3z"/>
<path d="M2020 10022 c0 -5 -12 -7 -26 -4 -31 6 -47 -14 -33 -39 6 -12 5 -20
-1 -24 -8 -5 -7 -11 1 -21 9 -11 9 -14 -1 -14 -9 0 -9 -4 -2 -13 7 -8 7 -18 2
-27 -5 -9 -5 -19 2 -27 7 -9 7 -13 -2 -13 -9 0 -9 -4 -2 -13 7 -8 7 -18 2 -27
-5 -9 -5 -19 2 -27 7 -9 7 -13 -2 -13 -9 0 -9 -4 -2 -13 7 -8 7 -18 2 -27 -5
-9 -5 -19 2 -27 7 -9 7 -13 -2 -13 -9 0 -9 -4 -2 -13 7 -8 7 -18 2 -27 -5 -9
-5 -19 2 -27 7 -9 7 -13 -2 -13 -9 0 -9 -4 -2 -13 7 -8 7 -18 2 -27 -5 -9 -5
-19 2 -27 7 -9 7 -13 -1 -13 -8 0 -9 -5 -3 -16 5 -9 6 -32 2 -50 -4 -19 -4
-34 1 -34 5 0 5 -10 1 -22 -9 -28 -9 -49 1 -65 4 -7 3 -22 -3 -33 -7 -13 -7
-26 -2 -36 5 -9 6 -32 2 -50 -4 -19 -4 -34 1 -34 5 0 5 -10 1 -22 -9 -28 -9
-49 1 -65 4 -7 3 -22 -3 -33 -7 -13 -7 -26 -2 -36 5 -9 6 -32 2 -50 -4 -19 -4
-34 1 -34 5 0 5 -10 1 -22 -9 -28 -9 -49 1 -65 4 -7 3 -22 -3 -33 -7 -13 -7
-26 -2 -36 5 -9 6 -32 2 -50 -4 -19 -4 -34 1 -34 5 0 5 -10 1 -22 -9 -28 -9
-49 1 -65 4 -7 3 -22 -3 -33 -7 -13 -7 -26 -2 -36 5 -9 6 -32 2 -50 -4 -19 -4
-34 1 -34 5 0 5 -10 1 -22 -9 -28 -9 -49 1 -65 4 -7 3 -22 -3 -33 -7 -13 -7
-26 -2 -37 6 -9 6 -29 2 -45 -5 -16 -5 -30 1 -33 5 -4 5 -13 -1 -24 -6 -12 -5
-22 2 -29 9 -9 9 -12 -1 -12 -10 0 -11 -3 -3 -13 7 -8 7 -18 2 -27 -5 -9 -5
-19 2 -27 7 -9 7 -13 -2 -13 -9 0 -9 -4 -2 -13 7 -8 7 -18 2 -27 -5 -9 -5 -19
2 -27 7 -9 7 -13 -2 -13 -9 0 -9 -4 -2 -13 7 -8 7 -18 2 -27 -5 -9 -5 -19 2
-27 7 -9 7 -13 -2 -13 -9 0 -9 -4 -2 -13 7 -8 7 -18 2 -27 -5 -9 -5 -19 2 -27
7 -9 7 -13 -2 -13 -9 0 -9 -4 -2 -13 7 -8 7 -18 2 -27 -5 -9 -5 -19 2 -27 7
-9 7 -13 -2 -13 -9 0 -9 -4 -2 -13 7 -8 7 -18 2 -27 -5 -9 -5 -19 2 -27 7 -9
7 -13 -2 -13 -9 0 -9 -4 -2 -13 7 -8 7 -18 2 -27 -5 -9 -5 -19 2 -27 7 -9 7
-13 -1 -13 -8 0 -9 -5 -3 -16 5 -9 6 -32 2 -50 -4 -19 -4 -34 1 -34 5 0 5 -10
1 -22 -9 -28 -9 -49 1 -65 4 -7 3 -22 -3 -33 -7 -13 -7 -26 -2 -36 5 -9 6 -32
2 -50 -4 -19 -4 -34 1 -34 5 0 5 -10 1 -22 -9 -28 -9 -49 1 -65 4 -7 3 -22 -3
-33 -7 -13 -7 -26 -2 -36 5 -9 6 -32 2 -50 -4 -19 -4 -34 1 -34 5 0 5 -10 1
-22 -9 -28 -9 -49 1 -65 4 -7 3 -22 -3 -33 -7 -13 -7 -26 -2 -36 5 -9 6 -32 2
-50 -4 -19 -4 -34 1 -34 5 0 5 -10 1 -22 -9 -28 -9 -49 1 -65 4 -7 3 -22 -3
-33 -7 -13 -7 -26 -2 -36 5 -9 6 -32 2 -50 -4 -19 -4 -34 1 -34 5 0 5 -10 1
-22 -9 -28 -9 -49 1 -65 4 -7 3 -21 -3 -32 -5 -11 -7 -28 -3 -37 9 -23 9 -65
0 -88 -4 -10 -3 -24 2 -30 6 -7 6 -17 1 -26 -5 -9 -5 -19 1 -27 7 -8 7 -18 -1
-32 -7 -14 -7 -27 -2 -37 5 -9 6 -32 2 -50 -5 -20 -4 -34 2 -34 5 0 7 -4 4 -8
-5 -9 -16 -61 -13 -64 7 -6 347 -11 347 -5 0 4 9 3 20 -3 11 -6 20 -7 20 -2 0
5 18 6 40 2 22 -4 40 -3 40 2 0 5 9 4 20 -2 11 -6 20 -7 20 -2 0 5 18 6 40 2
22 -4 40 -3 40 2 0 5 9 4 20 -2 11 -6 20 -7 20 -2 0 5 18 6 40 2 22 -4 40 -3
40 2 0 5 9 4 20 -2 11 -6 20 -7 20 -2 0 5 18 6 40 2 22 -4 40 -3 40 2 0 5 9 4
20 -2 11 -6 20 -7 20 -3 0 4 90 6 200 3 110 -3 200 -1 200 3 0 4 9 3 20 -3 11
-6 20 -7 20 -2 0 5 18 6 40 2 22 -4 40 -3 40 2 0 5 9 4 20 -2 11 -6 20 -7 20
-2 0 5 18 6 40 2 22 -4 40 -3 40 2 0 5 9 4 20 -2 14 -8 20 -8 20 0 0 8 6 8 20
0 14 -8 20 -8 20 0 0 8 6 8 20 0 11 -6 20 -7 20 -2 0 5 18 6 40 2 22 -4 40 -3
40 2 0 5 9 4 20 -2 11 -6 20 -7 20 -2 0 5 18 6 40 2 22 -4 40 -3 40 2 0 5 9 4
20 -2 11 -6 20 -7 20 -3 0 4 36 7 79 5 l79 -3 4 -40 c2 -21 0 -39 -5 -39 -4 0
-3 -9 3 -20 6 -11 7 -20 3 -20 -4 0 -6 -45 -3 -100 3 -55 1 -100 -3 -100 -4 0
-3 -9 3 -20 6 -11 7 -20 2 -20 -5 0 -6 -18 -2 -40 4 -22 3 -40 -2 -40 -5 0 -4
-9 2 -20 6 -11 7 -20 2 -20 -5 0 -6 -18 -2 -40 4 -22 3 -40 -2 -40 -5 0 -4 -9
2 -20 6 -11 7 -20 3 -20 -4 0 -6 -45 -3 -100 3 -55 1 -100 -3 -100 -4 0 -3 -9
3 -20 6 -11 7 -20 2 -20 -5 0 -6 -18 -2 -40 4 -22 3 -40 -2 -40 -5 0 -4 -9 2
-20 6 -11 7 -20 2 -20 -5 0 -6 -18 -2 -40 4 -22 3 -40 -2 -40 -5 0 -4 -9 2
-20 6 -11 7 -20 3 -20 -4 0 -6 -45 -3 -100 3 -55 1 -100 -3 -100 -4 0 -3 -9 3
-20 6 -11 7 -20 2 -20 -5 0 -6 -18 -2 -40 4 -22 3 -40 -2 -40 -5 0 -4 -9 2
-20 6 -11 7 -20 2 -20 -5 0 -6 -18 -2 -40 4 -22 3 -40 -2 -40 -5 0 -4 -9 2
-20 6 -11 7 -20 3 -20 -4 0 -6 -45 -3 -100 3 -55 1 -100 -3 -100 -4 0 -3 -9 3
-20 6 -11 7 -20 2 -20 -5 0 -6 -18 -2 -40 4 -22 4 -40 -1 -40 -4 0 -4 -13 1
-30 6 -20 5 -30 -2 -30 -7 0 -6 -5 1 -14 7 -9 8 -17 2 -20 -5 -3 -7 -15 -4
-26 6 -23 33 -27 103 -15 8 1 20 -2 27 -7 7 -6 19 -5 33 2 14 8 25 8 33 1 8
-6 18 -6 27 -1 9 5 19 5 27 -2 10 -8 13 -7 13 3 0 10 3 10 12 1 7 -7 17 -8 29
-2 11 6 20 6 24 1 3 -6 17 -6 33 -1 16 4 36 4 45 -2 11 -5 24 -5 37 2 11 6 26
7 33 3 16 -10 37 -10 65 -1 12 4 22 4 22 -1 0 -5 15 -5 34 -1 18 4 41 3 50 -2
11 -6 16 -5 16 3 0 8 4 8 13 1 8 -7 18 -7 27 -2 9 5 19 5 27 -2 9 -7 13 -7 13
2 0 9 4 9 13 2 8 -7 18 -7 27 -2 9 5 19 5 27 -1 8 -7 19 -7 33 1 14 8 25 8 33
1 8 -6 18 -6 27 -1 9 5 19 5 27 -1 8 -7 18 -7 32 1 15 7 21 7 21 0 0 -7 6 -7
21 0 14 8 24 8 32 1 8 -6 18 -6 27 -1 9 5 19 5 27 -1 8 -7 19 -7 33 1 14 8 25
8 33 1 8 -6 18 -6 27 -1 9 5 19 5 27 -2 10 -8 13 -7 13 3 0 10 3 10 12 1 7 -7
17 -8 29 -2 11 6 20 6 24 1 3 -6 17 -6 33 -1 16 4 36 4 45 -2 11 -5 24 -5 37
2 11 6 26 7 33 3 16 -10 37 -10 65 -1 12 4 22 4 22 -1 0 -5 15 -5 34 -1 18 4
41 3 50 -2 11 -6 16 -5 16 3 0 8 4 8 13 1 8 -7 18 -7 27 -2 9 5 19 5 27 -2 9
-7 13 -7 13 2 0 9 4 9 13 2 8 -7 18 -7 27 -2 9 5 19 5 27 -1 8 -7 19 -7 33 1
14 8 25 8 33 1 8 -6 18 -6 27 -1 9 5 19 5 27 -1 8 -7 18 -7 32 0 13 8 22 8 26
1 4 -6 12 -7 18 -3 7 4 19 6 29 5 9 -2 20 2 24 9 9 15 11 79 2 79 -4 0 -3 14
2 30 5 17 5 30 2 30 -9 0 -7 64 3 79 3 6 1 11 -5 11 -6 0 -8 5 -5 11 10 16 12
80 2 86 -4 3 -3 11 3 18 8 9 8 15 0 20 -7 4 -7 12 0 25 6 11 6 21 1 25 -6 3
-6 17 -1 35 5 18 5 32 -1 36 -6 4 -6 11 1 19 8 9 8 15 0 20 -6 4 -7 12 0 24 6
12 5 22 -1 28 -8 8 -7 17 0 32 8 15 9 21 1 21 -6 0 -8 5 -5 11 10 15 12 79 3
79 -3 0 -3 14 2 30 5 17 5 30 2 30 -9 0 -7 64 3 79 3 6 1 11 -5 11 -6 0 -8 5
-5 11 10 16 12 80 2 86 -4 3 -3 11 3 18 8 9 8 15 0 20 -6 4 -7 12 0 24 6 12 5
22 -1 28 -8 8 -7 17 0 32 8 15 9 21 1 21 -6 0 -8 5 -5 11 10 15 12 79 3 79 -3
0 -3 14 2 30 5 17 5 30 2 30 -9 0 -7 64 3 79 3 6 1 11 -5 11 -8 0 -8 6 0 20 8
14 8 20 0 20 -8 0 -8 6 0 20 8 14 8 20 0 20 -6 0 -8 5 -5 11 10 15 12 79 3 79
-3 0 -3 14 2 30 5 17 5 30 2 30 -9 0 -7 64 3 79 3 6 1 11 -5 11 -8 0 -8 6 0
20 7 14 7 26 1 39 -6 10 -7 21 -4 25 9 8 10 66 1 66 -4 0 -5 6 -3 13 9 23 12
87 5 87 -4 0 -5 11 -2 25 5 30 23 27 84 -11 21 -13 42 -24 48 -24 5 0 10 -3
10 -8 0 -4 16 -16 35 -26 19 -11 35 -23 35 -28 0 -5 5 -6 10 -3 6 3 10 1 10
-5 0 -6 5 -8 10 -5 6 3 10 2 10 -4 0 -10 39 -27 53 -23 5 1 6 -1 3 -6 -3 -5 4
-16 15 -25 10 -9 19 -12 19 -6 0 5 5 7 10 4 6 -4 8 -11 5 -16 -4 -5 3 -9 14
-9 12 0 21 -4 21 -10 0 -5 4 -9 9 -7 5 1 17 -7 26 -18 9 -11 14 -13 10 -5 -5
12 -4 12 7 -1 12 -14 32 -25 51 -27 4 -1 15 -8 23 -17 15 -14 44 -21 44 -10 0
3 -38 44 -85 91 -53 52 -90 82 -98 78 -7 -4 -9 -4 -5 0 7 8 -26 46 -39 46 -10
0 -63 66 -63 79 0 5 -9 13 -20 16 -11 3 -20 13 -20 21 0 8 -6 17 -14 20 -8 3
-17 15 -20 27 -3 13 -14 31 -24 42 -10 11 -19 23 -20 28 -1 4 -9 21 -17 37 -9
17 -13 30 -10 30 3 0 1 6 -5 13 -21 24 -59 87 -54 87 4 0 -4 9 -17 20 -13 10
-20 19 -15 20 5 0 -10 18 -33 40 -23 22 -40 40 -37 40 3 0 -47 53 -112 118
-64 64 -116 120 -114 125 1 4 -3 7 -10 7 -6 0 -9 3 -5 6 3 3 -10 20 -29 36
-19 17 -32 33 -30 36 3 2 -5 13 -17 24 -12 11 -15 17 -7 13 8 -4 6 1 -5 10
-11 9 -19 21 -17 26 1 5 -5 12 -13 15 -8 3 -12 10 -9 15 3 5 0 9 -6 9 -7 0
-10 7 -6 15 3 10 -1 15 -11 15 -9 0 -13 3 -10 6 4 4 -2 19 -13 34 -11 15 -17
30 -13 33 3 4 -2 9 -11 13 -9 3 -13 10 -10 15 3 5 -2 9 -11 9 -10 0 -13 5 -9
13 4 6 4 9 -1 5 -4 -4 -19 1 -33 12 -13 11 -28 17 -33 14 -5 -2 -22 2 -39 11
-20 10 -36 13 -48 7 -9 -5 -23 -7 -31 -4 -8 3 -11 0 -7 -7 6 -10 -28 -17 -57
-12 -5 1 -6 -3 -3 -8 5 -7 -18 -20 -47 -25 -4 0 -12 -7 -16 -15 -6 -8 -19 -12
-35 -9 -15 3 -31 0 -37 -8 -8 -9 -18 -10 -35 -3 -32 11 -34 11 -34 -2 0 -5 6
-7 13 -3 9 6 9 4 -1 -8 -10 -13 -10 -17 5 -23 10 -5 20 -9 23 -9 27 -6 70 -31
70 -42 0 -8 4 -14 9 -14 13 0 52 -70 46 -81 -4 -5 -1 -9 5 -9 6 0 9 -4 5 -9
-3 -5 -1 -13 5 -16 8 -5 8 -11 0 -20 -8 -10 -8 -15 0 -20 6 -4 8 -14 5 -24
-11 -28 -13 -61 -3 -67 5 -3 0 -16 -12 -29 -14 -15 -18 -25 -11 -30 6 -3 11
-18 10 -33 0 -15 2 -38 5 -52 3 -13 7 -39 8 -58 1 -18 6 -36 10 -38 5 -3 6
-10 3 -15 -4 -5 -1 -9 5 -9 7 0 9 -7 6 -17 -4 -10 -4 -14 0 -11 3 4 18 -15 32
-42 14 -28 29 -50 34 -50 4 0 8 -7 8 -16 0 -9 5 -12 12 -8 8 5 9 2 4 -12 -4
-10 -4 -16 -1 -12 10 9 45 -24 38 -35 -3 -6 -1 -7 5 -3 5 3 12 3 14 -2 6 -14
86 -72 120 -86 l33 -14 -27 -7 c-16 -4 -35 -5 -43 -1 -8 3 -15 1 -15 -5 0 -6
-7 -6 -20 1 -11 6 -20 7 -20 2 0 -5 -18 -6 -40 -2 -22 4 -40 3 -40 -2 0 -5 -9
-4 -20 2 -11 6 -20 7 -20 2 0 -5 -18 -6 -40 -2 -22 4 -40 3 -40 -2 0 -5 -9 -4
-20 2 -11 6 -20 7 -20 3 0 -4 -99 -6 -220 -3 -121 3 -220 1 -220 -3 0 -4 -9
-3 -20 3 -11 6 -20 7 -20 2 0 -5 -18 -6 -40 -2 -22 4 -40 3 -40 -2 0 -5 -9 -4
-20 2 -11 6 -20 7 -20 2 0 -5 -18 -6 -40 -2 -22 4 -40 3 -40 -2 0 -5 -9 -4
-20 2 -11 6 -20 7 -20 2 0 -5 -18 -6 -40 -2 -22 4 -40 3 -40 -2 0 -5 -9 -4
-20 2 -11 6 -20 7 -20 2 0 -5 -18 -6 -40 -2 -22 4 -40 3 -40 -2 0 -5 -9 -4
-20 2 -11 6 -20 7 -20 3 0 -4 -54 -7 -121 -5 l-120 3 2 34 c2 19 1 37 -3 40
-3 4 -2 19 2 35 4 16 6 31 4 33 -9 8 -9 257 -1 257 4 0 3 9 -3 20 -6 11 -7 20
-2 20 4 0 5 27 2 60 -3 33 -2 60 2 60 5 0 4 9 -2 20 -6 11 -7 20 -2 20 4 0 5
27 2 60 -3 33 -2 60 2 60 5 0 4 9 -2 20 -6 11 -7 20 -2 20 4 0 5 27 2 60 -3
33 -2 60 2 60 5 0 4 9 -2 20 -6 11 -7 20 -2 20 4 0 5 27 2 60 -3 33 -2 60 2
60 5 0 4 9 -2 20 -6 11 -7 20 -2 20 4 0 5 27 2 60 -3 33 -2 60 2 60 5 0 4 9
-2 20 -6 11 -7 20 -2 20 4 0 5 27 2 60 -3 33 -2 60 2 60 5 0 4 9 -2 20 -6 11
-7 20 -2 20 4 0 5 27 2 60 -3 33 -2 60 2 60 5 0 4 9 -2 20 -6 11 -7 20 -3 20
4 0 6 54 3 120 -3 66 -1 120 3 120 4 0 3 9 -3 20 -6 11 -7 20 -2 20 5 0 6 18
2 40 -4 22 -3 40 2 40 5 0 4 9 -2 20 -6 11 -7 20 -2 20 5 0 6 18 2 40 -4 22
-3 40 2 40 5 0 4 9 -2 20 -6 11 -7 20 -3 20 4 0 6 45 3 100 -3 55 -1 100 3
100 4 0 3 9 -3 20 -6 11 -7 20 -2 20 5 0 6 18 2 40 -4 22 -3 40 2 40 5 0 4 9
-2 20 -6 11 -7 20 -2 20 5 0 6 18 2 40 -4 22 -3 40 2 40 5 0 4 9 -2 20 -6 11
-7 20 -3 20 4 0 6 45 3 100 -3 55 -1 100 3 100 4 0 3 9 -3 20 -6 11 -7 20 -2
20 5 0 6 18 2 40 -4 22 -3 40 2 40 5 0 4 9 -2 20 -6 11 -7 20 -2 20 5 0 6 18
2 40 -4 22 -3 40 2 40 5 0 4 9 -2 20 -6 11 -7 20 -3 20 4 0 6 45 3 100 -3 55
-1 100 3 100 4 0 3 9 -3 20 -6 11 -7 20 -2 20 5 0 6 18 2 40 -4 22 -3 40 2 40
5 0 4 9 -2 20 -6 11 -7 20 -2 20 5 0 6 18 2 40 -4 22 -3 40 2 40 5 0 4 9 -2
20 -6 11 -7 20 -3 20 4 0 6 45 3 100 -3 55 -1 100 3 100 4 0 3 9 -3 20 -6 11
-7 20 -2 20 5 0 6 18 2 40 -4 22 -3 40 2 40 5 0 4 9 -2 20 -6 11 -7 20 -2 20
5 0 6 18 2 40 -4 22 -4 40 -1 40 4 0 5 18 3 39 -4 37 -6 39 -43 43 -21 2 -39
0 -39 -5 0 -4 -9 -3 -20 3 -14 8 -20 8 -20 0 0 -8 -6 -8 -20 0 -14 8 -20 8
-20 0 0 -8 -6 -8 -20 0 -11 6 -20 7 -20 2 0 -5 -18 -6 -40 -2 -22 4 -40 3 -40
-2 0 -5 -9 -4 -20 2 -11 6 -20 7 -20 2 0 -5 -18 -6 -40 -2 -22 4 -40 3 -40 -2
0 -5 -9 -4 -20 2 -11 6 -20 7 -20 3 0 -4 -45 -6 -100 -3 -55 3 -100 1 -100 -3
0 -4 -9 -3 -20 3 -11 6 -20 7 -20 2 0 -5 -18 -6 -40 -2 -22 4 -40 3 -40 -2 0
-5 -9 -4 -20 2 -11 6 -20 7 -20 2 0 -5 -18 -6 -40 -2 -22 4 -40 3 -40 -2 0 -5
-9 -4 -20 2 -11 6 -20 7 -20 3 0 -4 -45 -6 -100 -3 -55 3 -100 1 -100 -3 0 -4
-9 -3 -20 3 -11 6 -20 7 -20 2 0 -5 -18 -6 -40 -2 -22 4 -40 3 -40 -2 0 -5 -9
-4 -20 2 -11 6 -20 7 -20 2 0 -5 -18 -6 -40 -2 -22 4 -40 3 -40 -2 0 -5 -9 -4
-20 2 -14 8 -20 8 -20 0 0 -8 -6 -8 -20 0 -14 8 -20 8 -20 0 0 -8 -6 -8 -20 0
-11 6 -20 7 -20 2 0 -5 -18 -6 -40 -2 -22 4 -40 3 -40 -2 0 -5 -9 -4 -20 2
-11 6 -20 7 -20 2 0 -5 -18 -6 -40 -2 -22 4 -40 3 -40 -2 0 -5 -9 -4 -20 2
-11 6 -20 7 -20 3 0 -4 -45 -6 -100 -3 -55 3 -100 1 -100 -3 0 -4 -9 -3 -20 3
-11 6 -20 7 -20 2z"/>
<path d="M6070 3962 c0 -4 -16 -6 -36 -4 -26 3 -35 1 -30 -7 4 -6 3 -11 -3
-11 -9 0 -9 -7 -1 -45 1 -5 1 -12 0 -15 -5 -13 -4 -70 1 -70 3 0 3 -23 -1 -50
-4 -28 -3 -53 2 -56 5 -3 4 -12 -2 -19 -8 -9 -8 -15 0 -20 7 -4 7 -12 0 -25
-6 -11 -6 -21 -1 -25 6 -3 6 -17 1 -35 -5 -18 -5 -32 1 -36 6 -4 6 -11 -1 -19
-8 -9 -8 -15 0 -20 6 -4 7 -12 0 -24 -6 -12 -5 -22 2 -29 9 -9 9 -12 0 -12 -9
0 -10 -5 -3 -19 6 -10 7 -21 4 -25 -8 -7 -10 -66 -3 -66 7 0 4 -66 -5 -79 -3
-6 -1 -11 5 -11 6 0 8 -5 5 -11 -10 -15 -12 -79 -3 -79 3 0 3 -13 -2 -30 -5
-16 -6 -30 -2 -30 9 0 7 -68 -1 -76 -4 -4 -2 -15 3 -25 7 -12 6 -19 -2 -21 -8
-3 -8 -9 0 -25 6 -11 8 -23 5 -27 -8 -8 -10 -66 -2 -66 3 0 3 -23 -1 -50 -4
-28 -3 -53 2 -56 5 -3 4 -12 -2 -19 -8 -9 -8 -15 0 -20 7 -4 7 -12 0 -25 -6
-11 -6 -21 -1 -25 6 -3 6 -17 1 -35 -5 -18 -5 -32 1 -36 6 -4 6 -11 -1 -19 -8
-9 -8 -15 0 -20 7 -4 7 -12 0 -25 -6 -11 -6 -21 -1 -25 6 -3 6 -17 1 -35 -5
-18 -5 -32 1 -36 6 -4 6 -11 -1 -19 -8 -9 -8 -15 0 -20 7 -4 7 -12 0 -25 -6
-11 -6 -21 -1 -25 6 -3 6 -17 1 -35 -5 -18 -5 -32 1 -36 6 -4 6 -11 -1 -19 -8
-9 -8 -15 0 -20 6 -4 7 -12 0 -24 -6 -12 -5 -22 2 -29 9 -9 9 -12 0 -12 -9 0
-10 -5 -3 -19 6 -10 7 -21 4 -25 -7 -7 -10 -66 -3 -66 7 0 5 -65 -3 -76 -3 -5
0 -16 6 -24 13 -16 137 -22 137 -7 0 4 9 3 20 -3 11 -6 20 -7 20 -2 0 4 27 5
60 2 33 -3 60 -2 60 2 0 5 9 4 20 -2 11 -6 20 -7 20 -2 0 5 18 6 40 2 22 -4
40 -3 40 2 0 5 9 4 19 -2 14 -7 22 -7 26 0 5 8 11 7 21 -1 11 -9 14 -9 14 0 0
9 5 9 20 1 11 -6 20 -7 20 -3 0 4 36 6 80 3 44 -3 80 -1 80 3 0 4 9 3 20 -3
11 -6 20 -7 20 -3 0 4 36 6 80 3 44 -3 80 -1 80 3 0 4 9 3 19 -3 14 -7 22 -7
26 0 5 8 11 7 21 -1 11 -9 14 -9 14 0 0 9 5 9 20 1 14 -8 20 -8 20 0 0 8 6 8
20 0 14 -8 20 -8 20 0 0 7 6 8 19 0 14 -7 22 -7 26 0 5 8 11 7 21 -1 11 -9 14
-9 14 0 0 9 5 9 20 1 11 -6 20 -7 20 -3 0 4 36 6 80 3 44 -3 80 -1 80 3 0 4 9
3 20 -3 11 -6 20 -7 20 -3 0 4 36 6 80 3 44 -3 80 -1 80 3 0 4 9 3 19 -3 14
-7 22 -7 26 0 5 8 11 7 21 -1 11 -9 14 -9 14 0 0 9 5 9 20 1 11 -6 20 -7 20
-3 0 4 36 6 80 3 44 -3 80 -1 80 3 0 4 9 3 20 -3 11 -6 20 -7 20 -3 0 4 37 7
81 5 79 -3 82 -3 76 17 -3 12 -1 21 4 21 6 0 5 8 -1 20 -6 11 -7 20 -2 20 5 0
6 18 2 40 -4 22 -3 40 2 40 5 0 4 9 -2 20 -8 14 -8 20 0 20 8 0 8 6 0 20 -8
14 -8 20 0 20 8 0 8 6 0 20 -6 11 -7 20 -2 20 5 0 6 18 2 40 -4 22 -3 40 2 40
5 0 4 9 -2 20 -6 11 -7 20 -2 20 5 0 6 18 2 40 -4 22 -3 40 2 40 5 0 4 9 -2
20 -6 11 -7 20 -3 20 4 0 6 90 3 200 -3 110 -1 200 3 200 4 0 3 9 -3 20 -6 11
-7 20 -2 20 5 0 6 18 2 40 -4 22 -3 40 2 40 5 0 4 9 -2 20 -6 11 -7 20 -2 20
5 0 6 18 2 40 -4 22 -3 40 2 40 5 0 4 9 -2 20 -6 11 -7 20 -2 20 5 0 6 18 2
40 -4 22 -3 40 2 40 5 0 4 9 -2 20 -6 11 -7 20 -2 20 5 0 6 18 2 40 -4 22 -3
40 2 40 5 0 4 9 -2 20 -6 11 -7 20 -3 20 4 0 6 90 3 200 -3 110 -1 200 3 200
4 0 3 9 -3 20 -6 11 -7 20 -1 20 5 0 6 14 1 34 -4 20 -3 39 2 44 6 6 6 12 -1
16 -8 5 -8 13 -1 26 12 23 -12 35 -41 19 -14 -7 -24 -7 -32 0 -8 6 -18 6 -27
1 -9 -5 -19 -5 -27 1 -8 7 -18 7 -32 -1 -15 -7 -21 -7 -21 0 0 7 -6 7 -21 0
-14 -8 -24 -8 -32 -1 -8 6 -18 6 -27 1 -9 -5 -19 -5 -27 1 -7 6 -19 7 -30 2
-10 -5 -29 -8 -43 -6 -33 5 -93 3 -98 -2 -3 -2 -13 0 -23 6 -14 7 -19 6 -19
-2 0 -8 -4 -8 -13 -1 -8 7 -18 7 -27 2 -9 -5 -19 -5 -27 1 -8 7 -19 7 -33 -1
-16 -8 -25 -8 -35 0 -9 8 -15 8 -20 0 -5 -8 -34 0 -51 14 0 1 -9 -5 -18 -13
-12 -10 -20 -11 -28 -3 -7 7 -17 8 -29 2 -11 -7 -20 -7 -24 0 -4 6 -13 7 -24
1 -9 -5 -23 -6 -30 -2 -7 5 -30 5 -51 1 -21 -4 -45 -3 -54 2 -10 5 -24 5 -37
-2 -14 -8 -24 -8 -32 -1 -8 6 -18 6 -27 1 -9 -5 -19 -5 -27 1 -8 7 -18 7 -32
-1 -15 -7 -21 -7 -21 0 0 7 -6 7 -21 0 -14 -8 -24 -8 -32 -1 -8 6 -18 6 -27 1
-9 -5 -19 -5 -27 1 -7 6 -19 7 -30 2 -10 -5 -29 -8 -43 -6 -33 5 -93 3 -98 -2
-3 -2 -13 0 -23 6 -14 7 -19 6 -19 -2 0 -8 -4 -8 -13 -1 -8 7 -18 7 -27 2 -9
-5 -19 -5 -27 1 -8 7 -19 7 -33 -1 -16 -8 -25 -8 -35 0 -9 8 -15 8 -20 0 -5
-8 -34 0 -51 14 0 1 -9 -5 -18 -13 -12 -10 -20 -11 -28 -3 -7 7 -17 8 -29 2
-11 -7 -20 -7 -24 0 -4 6 -13 7 -24 1 -9 -5 -23 -6 -30 -2 -7 5 -30 5 -51 1
-21 -4 -45 -3 -52 1 -17 11 -28 11 -28 1z"/>
</g>
</svg>
